Coordinates
version=1
nRows=19
nColumns=24
inDegrees=yes

Units are S.I. units (second, meters, Newtons, ...)
Angles are in degrees.

endheader
time	pelvis_tilt	pelvis_list	pelvis_rotation	pelvis_tx	pelvis_ty	pelvis_tz	hip_flexion_r	hip_adduction_r	hip_rotation_r	knee_angle_r	ankle_angle_r	subtalar_angle_r	mtp_angle_r	hip_flexion_l	hip_adduction_l	hip_rotation_l	knee_angle_l	ankle_angle_l	subtalar_angle_l	mtp_angle_l	lumbar_extension	lumbar_bending	lumbar_rotation
      1.09000000	     19.43114182	      3.10679636	      3.97755266	     -0.51933371	      0.92490769	      0.26911044	      8.52899480	     -1.61124878	     -5.49160621	    -12.90772841	     11.49029181	      1.18530963	     46.48135058	    -35.37869748	      2.62441595	     -4.46082856	    -16.76307012	     29.14027101	     17.77198036	     21.57400601	    -36.67745875	     -0.10787227	     -4.24463999
      1.09500000	     19.38474003	      2.84967201	      4.00705796	     -0.51171881	      0.92404303	      0.26946278	      8.78121874	     -1.22721566	     -5.25217740	    -13.90960512	     11.35962735	      0.83924472	     46.40365932	    -35.33045750	      2.23991211	     -4.72530105	    -17.72079666	     28.84868216	     17.95872623	     23.63571678	    -36.50695740	      0.18438931	     -4.10470544
      1.10000000	     19.31111960	      2.80406687	      4.13346595	     -0.50432010	      0.92326269	      0.26955700	      9.12174300	     -1.13262923	     -5.23988994	    -15.12001861	     11.34848017	      0.82478165	     46.54592010	    -35.19076461	      2.02213051	     -4.58054990	    -18.76934033	     28.45363361	     17.96270875	     25.32524534	    -36.34761463	      0.35346628	     -4.24719964
      1.10500000	     19.30057537	      2.59396989	      4.24026534	     -0.49676659	      0.92260462	      0.26972854	      9.32532487	     -0.83074491	     -5.17014760	    -16.21727836	     11.21051801	      0.62143179	     46.63932596	    -35.07546679	      1.64077966	     -4.65679297	    -19.89366252	     28.00635857	     18.02420675	     27.53643051	    -36.22767433	      0.66335925	     -4.21575674
      1.11000000	     19.26242922	      2.44471004	      4.39172537	     -0.48927233	      0.92200999	      0.26973588	      9.56326529	     -0.62964515	     -5.20118747	    -17.37584614	     11.12416892	      0.62708153	     46.72784171	    -34.86987401	      1.31646485	     -4.54537387	    -21.11002467	     27.47647944	     17.85207548	     29.64491302	    -36.09102040	      0.95915539	     -4.29607335
      1.11500000	     19.24788701	      2.26042947	      4.52308892	     -0.48176953	      0.92149003	      0.26984548	      9.76044079	     -0.37295801	     -5.19232544	    -18.52270559	     11.01445971	      0.47808237	     46.72697748	    -34.62636099	      0.94559225	     -4.53010376	    -22.42520889	     26.87722549	     17.86251113	     31.92906791	    -35.97793198	      1.26430028	     -4.29217965
      1.12000000	     19.17450941	      2.07163256	      4.73206671	     -0.47432142	      0.92099004	      0.26982568	      9.98525366	     -0.13168119	     -5.25319489	    -19.62043426	     10.86565465	      0.34246927	     46.71044950	    -34.21627221	      0.53744203	     -4.38680829	    -23.92759397	     26.41733806	     17.89137775	     32.28515633	    -35.80544821	      1.61442547	     -4.33243174
      1.12500000	     19.08189807	      1.89709803	      4.78667494	     -0.46683927	      0.92048395	      0.27003087	     10.26911054	      0.11801500	     -5.13534415	    -20.79521004	     10.78987249	      0.17501127	     46.50690740	    -33.77363312	      0.23591724	     -4.37944754	    -25.39670947	     25.52095906	     17.58435928	     36.34799789	    -35.61770753	      1.86613084	     -4.27541435
      1.13000000	     18.91465473	      1.75266863	      4.91360798	     -0.45951348	      0.91996741	      0.27013780	     10.61213773	      0.31838435	     -5.05966934	    -21.93279976	     10.68340119	     -0.03881967	     46.31574538	    -33.11919884	     -0.06882933	     -4.22494447	    -27.09791546	     24.78864812	     17.39146050	     38.04991407	    -35.36567200	      2.10574088	     -4.20459645
      1.13500000	     18.77708808	      1.53655022	      5.06668083	     -0.45216439	      0.91956430	      0.27023365	     10.87691703	      0.60080116	     -5.03240141	    -22.98966562	     10.58461754	     -0.26262731	     45.96530583	    -32.43046656	     -0.46408836	     -4.11329946	    -28.87649791	     23.95271358	     17.15698149	     40.28451927	    -35.13889190	      2.44541483	     -4.19158741
      1.14000000	     18.71320596	      1.27419468	      5.27130215	     -0.44484813	      0.91933567	      0.27022151	     11.00826104	      0.92442519	     -5.09849139	    -23.95940764	     10.60317968	     -0.36335110	     45.46252799	    -31.75131573	     -0.93788949	     -3.99568482	    -30.72770912	     23.01299800	     16.90957753	     42.86363433	    -34.99084018	      2.87393108	     -4.20151434
      1.14500000	     18.56444230	      1.02588148	      5.52127063	     -0.43770337	      0.91905196	      0.27021306	     11.22423268	      1.23406956	     -5.15843987	    -24.89414049	     10.53089013	     -0.70827071	     45.29655900	    -30.86019667	     -1.41189267	     -3.76371531	    -32.76870878	     22.24280120	     16.77370411	     43.34670988	    -34.76996639	      3.29858044	     -4.27314999
      1.15000000	     18.28916628	      0.78932796	      5.59213547	     -0.43052776	      0.91860331	      0.27039014	     11.61124221	      1.54260546	     -5.01845750	    -25.88356077	     10.61344941	     -0.87658836	     44.40397643	    -29.80644448	     -1.75053579	     -3.65107640	    -34.81294159	     21.17598297	     16.27415578	     46.11435049	    -34.41330153	      3.56875157	     -3.98154227
      1.15500000	     18.17693884	      0.45375707	      5.96555693	     -0.42354069	      0.91849173	      0.27024496	     11.68944476	      1.94202113	     -5.20421544	    -26.61604397	     10.64803144	     -1.24669192	     44.13836134	    -28.78184600	     -2.36812429	     -3.32636129	    -37.02898526	     20.30584322	     16.10579765	     46.67578934	    -34.23374624	      4.14995982	     -4.14668305
      1.16000000	     17.84859866	      0.15391675	      6.08953811	     -0.41651028	      0.91806187	      0.27032131	     12.07215804	      2.30890733	     -5.11584701	    -27.47193166	     10.87731763	     -1.37514172	     42.85270859	    -27.51165054	     -2.77317742	     -3.15734569	    -39.23696075	     19.19892429	     15.48759184	     49.30120023	    -33.82542378	      4.51067927	     -3.86380570
      1.16500000	     17.66352849	     -0.20974784	      6.45334089	     -0.40970953	      0.91793545	      0.27014431	     12.19193492	      2.73557554	     -5.27561268	    -28.09999796	     11.02428594	     -1.68616442	     41.80876988	    -26.27032871	     -3.36808133	     -2.76609372	    -41.54940646	     18.17018443	     15.07220995	     50.80204020	    -33.57730837	      5.08089819	     -3.85576930
      1.17000000	     17.37530344	     -0.62326963	      6.78877340	     -0.40293891	      0.91765871	      0.27004033	     12.41451773	      3.21984977	     -5.38315615	    -28.66950614	     11.15651502	     -2.07633450	     41.53237612	    -24.85024025	     -3.97858399	     -2.39696512	    -43.93647110	     17.27110948	     14.67212415	     51.01862219	    -33.21437905	      5.67766596	     -3.85453293
      1.17500000	     17.01689493	     -1.04645176	      7.11018391	     -0.39625205	      0.91730281	      0.26992652	     12.70609299	      3.70709380	     -5.47162648	    -29.20615789	     11.33789830	     -2.45064049	     41.05178429	    -23.29584741	     -4.56160715	     -1.99545290	    -46.34489703	     16.36711332	     14.20447881	     51.33097447	    -32.77711834	      6.26016372	     -3.77824220
      1.18000000	     16.63056587	     -1.50081738	      7.44482935	     -0.38963873	      0.91693411	      0.26978431	     12.99983601	      4.22389709	     -5.57300884	    -29.66403274	     11.55938840	     -2.82718721	     40.41278478	    -21.65489112	     -5.15735103	     -1.55782325	    -48.76028415	     15.49510267	     13.68457108	     51.64041159	    -32.30750413	      6.87129017	     -3.69098462
